<svg width="15" height="15" viewBox="0 0 15 15" fill="none" xmlns="http://www.w3.org/2000/svg">
<path d="M4.96653 13.6581C5.3094 13.6581 5.58735 13.3801 5.58735 13.0373C5.58735 12.6944 5.3094 12.4164 4.96653 12.4164C4.62365 12.4164 4.3457 12.6944 4.3457 13.0373C4.3457 13.3801 4.62365 13.6581 4.96653 13.6581Z" stroke="#E6A800" stroke-width="1.24165" stroke-linecap="round" stroke-linejoin="round"/>
<path d="M11.7956 13.6581C12.1385 13.6581 12.4164 13.3801 12.4164 13.0373C12.4164 12.6944 12.1385 12.4164 11.7956 12.4164C11.4528 12.4164 11.1748 12.6944 11.1748 13.0373C11.1748 13.3801 11.4528 13.6581 11.7956 13.6581Z" stroke="#E6A800" stroke-width="1.24165" stroke-linecap="round" stroke-linejoin="round"/>
<path d="M1.27246 1.27271H2.51411L4.16549 8.98332C4.22607 9.26571 4.3832 9.51815 4.60982 9.69718C4.83645 9.87621 5.1184 9.97065 5.40714 9.96422H11.4788C11.7614 9.96376 12.0353 9.86693 12.2555 9.68972C12.4756 9.5125 12.6286 9.2655 12.6894 8.98953L13.7137 4.37682H3.17839" stroke="#E6A800" stroke-width="1.24165" stroke-linecap="round" stroke-linejoin="round"/>
</svg>
