<svg width="69" height="69" viewBox="0 0 69 69" fill="none" xmlns="http://www.w3.org/2000/svg">
<path d="M27.7232 18.4821H21.5625C19.8613 18.4821 18.4822 19.8613 18.4822 21.5625V27.7232C18.4822 29.4245 19.8613 30.8036 21.5625 30.8036H27.7232C29.4245 30.8036 30.8036 29.4245 30.8036 27.7232V21.5625C30.8036 19.8613 29.4245 18.4821 27.7232 18.4821Z" stroke="#E6A800" stroke-width="4.5"/>
<path d="M47.4376 18.4821H41.2769C39.5757 18.4821 38.1965 19.8613 38.1965 21.5625V27.7232C38.1965 29.4245 39.5757 30.8036 41.2769 30.8036H47.4376C49.1388 30.8036 50.518 29.4245 50.518 27.7232V21.5625C50.518 19.8613 49.1388 18.4821 47.4376 18.4821Z" stroke="#E6A800" stroke-width="4.5"/>
<path d="M27.7232 38.1964H21.5625C19.8613 38.1964 18.4822 39.5756 18.4822 41.2768V47.4375C18.4822 49.1387 19.8613 50.5179 21.5625 50.5179H27.7232C29.4245 50.5179 30.8036 49.1387 30.8036 47.4375V41.2768C30.8036 39.5756 29.4245 38.1964 27.7232 38.1964Z" stroke="#E6A800" stroke-width="4.5"/>
<path d="M47.4376 38.1964H41.2769C39.5757 38.1964 38.1965 39.5756 38.1965 41.2768V47.4375C38.1965 49.1387 39.5757 50.5179 41.2769 50.5179H47.4376C49.1388 50.5179 50.518 49.1387 50.518 47.4375V41.2768C50.518 39.5756 49.1388 38.1964 47.4376 38.1964Z" stroke="#E6A800" stroke-width="4.5"/>
</svg>
